<svg width="1287" height="570" viewBox="0 0 1287 570" fill="none" xmlns="http://www.w3.org/2000/svg">
<path d="M61.7727 678.963L61.0483 678.769L60.8541 679.493L25.6269 810.963L25.4328 811.688L26.1573 811.882C221.012 864.093 421.298 748.463 473.507 553.614C525.717 358.766 410.08 158.484 215.225 106.273L214.5 106.079L214.306 106.803L179.079 238.273L178.885 238.997L179.609 239.191C301.053 271.732 373.124 396.558 340.584 517.998C308.045 639.437 183.216 711.504 61.7727 678.963ZM112.573 382.711L112.767 381.987L112.042 381.793C48.5137 364.77 0.478034 287.109 24.918 195.898L25.1121 195.174L24.3876 194.98L-107.087 159.751L-107.811 159.557L-108.005 160.281C-148.117 309.982 -74.5936 474.246 76.4268 514.711L77.1512 514.905L77.3454 514.181L112.573 382.711Z" stroke="#212427" stroke-width="1.5"/>
<path d="M1287.51 -244.809L1288.24 -245.003L1288.04 -245.727L1252.82 -377.197L1252.62 -377.921L1251.9 -377.727C1057.04 -325.516 941.406 -125.235 993.615 69.6139C1045.82 264.462 1246.11 380.093 1440.97 327.881L1441.69 327.687L1441.5 326.963L1406.27 195.493L1406.07 194.769L1405.35 194.963C1283.91 227.504 1159.08 155.437 1126.54 33.9973C1094 -87.4423 1166.07 -212.268 1287.51 -244.809ZM1391.65 37.1527L1391.84 37.8772L1392.56 37.6831C1456.09 20.6607 1536.52 63.8993 1560.96 155.11L1561.16 155.835L1561.88 155.641L1693.36 120.412L1694.08 120.218L1693.89 119.494C1653.77 -30.2066 1507.97 -135.701 1356.95 -95.2356L1356.22 -95.0415L1356.42 -94.317L1391.65 37.1527Z" stroke="#212427" stroke-width="1.5"/>
</svg>
